<?xml version="1.0" standalone="no"?>
<!DOCTYPE svg PUBLIC "-//W3C//DTD SVG 20010904//EN"
 "http://www.w3.org/TR/2001/REC-SVG-20010904/DTD/svg10.dtd">
<svg version="1.0" xmlns="http://www.w3.org/2000/svg"
 width="512.000000pt" height="512.000000pt" viewBox="0 0 512.000000 512.000000"
 preserveAspectRatio="xMidYMid meet">
<metadata>
Created by potrace 1.11, written by Peter Selinger 2001-2013
</metadata>
<g transform="translate(0.000000,512.000000) scale(0.100000,-0.100000)"
fill="#000000" stroke="none">
<path d="M400 4278 c-154 -13 -278 -88 -337 -202 -35 -69 -33 -128 10 -266 19
-63 63 -209 97 -325 34 -115 74 -245 89 -287 54 -148 119 -231 218 -280 l66
-32 816 -1 816 0 66 32 c82 41 141 100 182 183 l32 65 2 395 c2 267 -1 408 -8
435 -42 151 -167 264 -311 281 -70 9 -1643 11 -1738 2z"/>
<path d="M3067 4284 c-1 -1 -32 -4 -69 -7 -161 -14 -294 -133 -329 -296 -6
-31 -9 -191 -7 -432 l3 -384 31 -65 c35 -72 71 -114 139 -160 86 -59 75 -58
940 -55 520 2 801 7 823 13 88 28 156 89 216 193 33 58 53 116 126 359 32 107
77 258 100 335 48 162 52 210 20 282 -42 99 -176 193 -299 209 -40 5 -1687 13
-1694 8z"/>
<path d="M958 2729 c-141 -15 -265 -128 -253 -230 4 -36 209 -560 245 -628 17
-32 48 -74 68 -94 71 -68 51 -66 664 -63 422 2 562 6 593 16 53 17 114 62 143
104 44 65 50 113 48 417 -2 271 -3 286 -23 324 -26 46 -67 94 -103 116 -65 41
-82 42 -715 43 -335 1 -636 -2 -667 -5z"/>
<path d="M2889 2727 c-70 -10 -105 -27 -153 -74 -77 -76 -80 -91 -82 -413 -1
-307 3 -345 50 -408 37 -50 96 -90 157 -105 42 -10 178 -13 600 -13 l545 1 45
23 c44 23 88 74 128 147 25 48 229 575 235 610 14 76 -65 175 -170 215 -59 22
-62 22 -680 24 -342 0 -645 -2 -675 -7z"/>
<path d="M1360 1560 c-73 -20 -138 -78 -146 -131 -4 -26 10 -82 60 -229 94
-277 126 -331 206 -355 13 -4 207 -8 430 -8 443 0 445 1 504 59 53 54 58 78
57 304 -1 123 -5 220 -12 237 -17 46 -55 89 -96 109 -36 18 -68 19 -508 20
-259 0 -482 -3 -495 -6z"/>
<path d="M2785 1557 c-50 -16 -96 -57 -117 -104 -17 -39 -19 -67 -19 -254 1
-227 5 -251 57 -303 58 -58 61 -58 510 -58 473 0 461 -2 519 86 19 28 58 122
88 211 82 239 90 270 83 298 -9 37 -52 85 -100 110 -40 21 -48 22 -516 23
-283 0 -487 -3 -505 -9z"/>
</g>
</svg>
